<?xml version="1.0" encoding="UTF-8" standalone="no"?>
<svg
   width="167.233"
   height="167.233"
   version="1.1"
   viewBox="0 0 167.233 167.233"
   id="svg13"
   sodipodi:docname="Logo.svg"
   xml:space="preserve"
   inkscape:version="1.3.2 (091e20ef0f, 2023-11-25, custom)"
   inkscape:export-filename="extractor-drone-icon-2.png"
   inkscape:export-xdpi="562.48901"
   inkscape:export-ydpi="562.48901"
   xmlns:inkscape="http://www.inkscape.org/namespaces/inkscape"
   xmlns:sodipodi="http://sodipodi.sourceforge.net/DTD/sodipodi-0.dtd"
   xmlns="http://www.w3.org/2000/svg"
   xmlns:svg="http://www.w3.org/2000/svg"><defs
     id="defs13"><inkscape:path-effect
       effect="mirror_symmetry"
       start_point="109.49286,-37.098682"
       end_point="109.49286,-202.52607"
       center_point="109.49286,-119.81238"
       id="path-effect27"
       is_visible="true"
       lpeversion="1.2"
       lpesatellites=""
       mode="vertical"
       discard_orig_path="false"
       fuse_paths="false"
       oposite_fuse="false"
       split_items="true"
       split_open="false"
       link_styles="false" /><inkscape:path-effect
       effect="powerstroke"
       id="path-effect25"
       is_visible="true"
       lpeversion="1.3"
       scale_width="4.7109208"
       interpolator_type="CentripetalCatmullRom"
       interpolator_beta="0.12633833"
       start_linecap_type="zerowidth"
       end_linecap_type="square"
       offset_points="0.21132572,0.21876021 | 1,0.49986592 | 1.8,0.49986592"
       linejoin_type="round"
       miter_limit="4"
       not_jump="false"
       sort_points="true"
       message="&lt;b&gt;Ctrl + click&lt;/b&gt; on existing node and move it" /><inkscape:path-effect
       effect="mirror_symmetry"
       start_point="109.49286,-37.098682"
       end_point="109.49286,-202.52607"
       center_point="109.49286,-119.81238"
       id="path-effect23"
       is_visible="true"
       lpeversion="1.2"
       lpesatellites=""
       mode="vertical"
       discard_orig_path="false"
       fuse_paths="false"
       oposite_fuse="false"
       split_items="true"
       split_open="false"
       link_styles="false" /><inkscape:path-effect
       effect="powerstroke"
       id="path-effect21"
       is_visible="true"
       lpeversion="1.3"
       scale_width="4.7109208"
       interpolator_type="CentripetalCatmullRom"
       interpolator_beta="0.12633833"
       start_linecap_type="zerowidth"
       end_linecap_type="square"
       offset_points="0.21132572,0.21876021 | 1,0.49986592 | 1.8,0.49986592"
       linejoin_type="round"
       miter_limit="4"
       not_jump="false"
       sort_points="true"
       message="&lt;b&gt;Ctrl + click&lt;/b&gt; on existing node and move it" /><inkscape:path-effect
       effect="mirror_symmetry"
       start_point="109.49286,-37.098682"
       end_point="109.49286,-202.52607"
       center_point="109.49286,-119.81238"
       id="path-effect18"
       is_visible="true"
       lpeversion="1.2"
       lpesatellites=""
       mode="vertical"
       discard_orig_path="false"
       fuse_paths="false"
       oposite_fuse="false"
       split_items="true"
       split_open="false"
       link_styles="false" /><inkscape:path-effect
       effect="powerstroke"
       id="path-effect17"
       is_visible="true"
       lpeversion="1.3"
       scale_width="4.7109208"
       interpolator_type="CentripetalCatmullRom"
       interpolator_beta="0.12633833"
       start_linecap_type="zerowidth"
       end_linecap_type="square"
       offset_points="0.21132572,0.21876021 | 1,0.49986592 | 1.8,0.49986592"
       linejoin_type="round"
       miter_limit="4"
       not_jump="false"
       sort_points="true"
       message="&lt;b&gt;Ctrl + click&lt;/b&gt; on existing node and move it" /><inkscape:path-effect
       effect="powerstroke"
       id="path-effect15"
       is_visible="true"
       lpeversion="1.3"
       scale_width="6.8522484"
       interpolator_type="CentripetalCatmullRom"
       interpolator_beta="0.12633833"
       start_linecap_type="zerowidth"
       end_linecap_type="square"
       offset_points="0.2,0.49986592 | 1,0.49986592 | 1.8,0.49986592"
       linejoin_type="round"
       miter_limit="4"
       not_jump="false"
       sort_points="true"
       message="&lt;b&gt;Ctrl + click&lt;/b&gt; on existing node and move it" /><inkscape:path-effect
       effect="powerstroke"
       id="path-effect2"
       is_visible="false"
       lpeversion="1.3"
       scale_width="4.7109208"
       interpolator_type="CentripetalCatmullRom"
       interpolator_beta="0.12633833"
       start_linecap_type="zerowidth"
       end_linecap_type="square"
       offset_points="0.19544696,0.40322423 | 1.0078432,0.83412489 | 1.7721403,0.86937462"
       linejoin_type="round"
       miter_limit="4"
       not_jump="false"
       sort_points="true"
       message="&lt;b&gt;Ctrl + click&lt;/b&gt; on existing node and move it" /><clipPath
       clipPathUnits="userSpaceOnUse"
       id="clipPath3"><circle
         style="display:inline;fill:none;fill-opacity:0.995495;stroke:none;stroke-width:1.22252;stroke-dasharray:none"
         id="circle3"
         cx="77.276413"
         cy="-82.182335"
         r="86.414719"
         transform="scale(1,-1)"
         inkscape:label="CircleInner" /></clipPath><clipPath
       clipPathUnits="userSpaceOnUse"
       id="clipPath4"><circle
         style="display:inline;fill:none;fill-opacity:0.995495;stroke:#000000;stroke-width:1.22252;stroke-dasharray:none"
         id="circle5"
         cx="77.276413"
         cy="-82.182335"
         r="86.414719"
         transform="scale(1,-1)"
         inkscape:label="CircleInner" /></clipPath><clipPath
       clipPathUnits="userSpaceOnUse"
       id="clipPath27"><path
         id="path27"
         style="display:inline;fill:none;fill-opacity:1;fill-rule:nonzero;stroke:#000000;stroke-width:1.20147;stroke-dasharray:none;stroke-opacity:1"
         inkscape:label="Dupe"
         d="m 121.96583,173.32262 c 30.95273,-16.58297 52.06794,-49.72157 52.06794,-87.897241 0,-50.705717 -37.25086,-92.5252015 -85.326555,-98.468027 C 85.885717,-13.391424 27.234683,-23.012807 0.31663964,-8.2128141 -12.089454,-1.3917353 -21.437424,163.41571 -10.054829,177.12178 Z"
         sodipodi:nodetypes="cssscc" /></clipPath><clipPath
       clipPathUnits="userSpaceOnUse"
       id="clipPath29"><ellipse
         style="fill:none;fill-opacity:1;stroke:#b51818;stroke-width:0.231997;stroke-dasharray:none;stroke-opacity:1"
         id="ellipse29"
         cx="76.966408"
         cy="86.516045"
         rx="91.628853"
         ry="95.178291"
         inkscape:label="Edge Clip" /></clipPath></defs><sodipodi:namedview
     id="namedview13"
     pagecolor="#ffffff"
     bordercolor="#000000"
     borderopacity="0.25"
     inkscape:showpageshadow="2"
     inkscape:pageopacity="0.0"
     inkscape:pagecheckerboard="0"
     inkscape:deskcolor="#d1d1d1"
     inkscape:zoom="5.6568543"
     inkscape:cx="74.157823"
     inkscape:cy="79.903066"
     inkscape:window-width="2560"
     inkscape:window-height="1368"
     inkscape:window-x="0"
     inkscape:window-y="0"
     inkscape:window-maximized="1"
     inkscape:current-layer="svg13"
     inkscape:export-bgcolor="#ffffff24" /><ellipse
     style="fill:#ffffff;fill-opacity:1;stroke:none;stroke-width:0.4;stroke-opacity:1;stroke-dasharray:none"
     id="path13"
     cx="82.736885"
     cy="85.489609"
     rx="78.754913"
     ry="81.318184" /><g
     fill="#fff"
     stroke-linecap="round"
     stroke-linejoin="round"
     id="g13"
     style="display:inline;fill:#000000;fill-opacity:1"
     transform="matrix(0.83208785,0,0,0.83208785,18.989584,14.207766)"
     clip-path="url(#clipPath29)"><path
       x="3.7617943"
       y="17.126064"
       width="68.405258"
       height="20.49188"
       d="m 4.7618,17.126 h 66.405 a 1,1 45 0 1 1,1 v 18.992 a 0.5,0.5 135 0 1 -0.5,0.5 H 4.2618 a 0.5,0.5 45 0 1 -0.5,-0.5 V 18.126 a 1,1 135 0 1 1,-1 z"
       opacity="0.99"
       stroke-width="4"
       id="path1"
       style="fill:#000000;fill-opacity:1;stroke:none;stroke-width:1.56234;stroke-dasharray:none;stroke-opacity:1" /><path
       transform="matrix(1.1018,0,0,1,-3.8645,0.2893)"
       d="m 37.964,8.3298 c -14.924,2.41e-5 -27.022,1.4263 -27.02,3.1855 v 2.6836 a 0.5,0.5 45 0 0 0.5,0.5 h 53.039 a 0.5,0.5 135 0 0 0.5,-0.5 V 11.5153 C 64.985616,9.7561 52.888,8.3298 37.963,8.3298 Z"
       opacity="0.99"
       stroke-width="4"
       id="path2"
       style="fill:#000000;fill-opacity:1;stroke:none;stroke-width:1.48841;stroke-dasharray:none;stroke-opacity:1" /><path
       d="m 3.7617,42.234 v 0.80469 l 6.6133,6.0332 2.3764,2.1686 a 3.3995,3.3995 66.191 0 1 1.108,2.5111 v 4.4414 a 1.5,1.5 45 0 0 1.5,1.5 h 38.562 a 1.2195,1.2195 135 0 0 1.2195,-1.2195 v -5.0559 c 0,-0.82843 0.67297,-1.5329 1.4898,-1.6688 4.8708,-0.81041 9.0297,-4.0803 10.938,-8.7101 0.05893,-0.18053 0.11428,-0.3622 0.16602,-0.54492 V 42.234 h -61.439 z"
       opacity="0.99"
       stroke-width="6.4704"
       id="path3"
       style="fill:#000000;fill-opacity:1" /><g
       stroke-width="4"
       id="g7"
       style="fill:#000000;fill-opacity:1"
       clip-path="none"><path
         d="m 13.859,65.113 v 18.721 a 1.5,1.5 45 0 0 1.5,1.5 h 23.49 c 0.82843,0 1.6459,-0.65641 1.884,-1.4497 1.9607,-6.5339 6.7308,-11.863 13.008,-14.532 0.76224,-0.32413 1.3986,-1.2132 1.3986,-2.0416 v -2.1973 a 1.5,1.5 45 0 0 -1.5,-1.5 h -38.281 a 1.5,1.5 135 0 0 -1.5,1.5 z"
         opacity="0.99"
         id="path4"
         style="fill:#000000;fill-opacity:1" /><path
         d="M 53.74,111.62 C 45.7406,108.2509 40.317,100.641 39.744,91.98 39.68924,91.15353 39.02198,90.4811 38.1936,90.4811 h -22.834 a 1.5,1.5 135 0 0 -1.5,1.5 v 54.92 a 1.5,1.5 45 0 0 1.5,1.5 h 38.281 a 1.5,1.5 135 0 0 1.5,-1.5 v -33.244 c 0,-0.82843 -0.637,-1.7154 -1.4003,-2.0369 z"
         opacity="0.99"
         id="path5"
         style="fill:#000000;fill-opacity:1" /><path
         d="m 13.859,156.9 v 2.9082 c -4.54e-4,2.4356 9.2408,4.4102 20.641,4.4102 11.4002,0 20.641,-1.9745 20.641,-4.4102 V 156.9 a 1.5,1.5 45 0 0 -1.5,-1.5 H 15.36 a 1.5,1.5 135 0 0 -1.5,1.5 z"
         opacity="0.99"
         id="path6"
         style="fill:#000000;fill-opacity:1" /><path
         d="m 103.31,55.434 c -0.26685,0.0013 -0.4082,0.0059 -0.4082,0.0059 h -39.939 a 1.5,1.5 135 0 0 -1.5,1.5 v 10.243 c 0,0.24746 0.19901,0.42262 0.44509,0.39658 0.25293,-0.02676 0.50629,-0.04931 0.75999,-0.06766 9.1946,0.0045 17.447,5.4832 21.064,13.834 0.3292,0.76005 1.2226,1.3948 2.051,1.3948 h 58.261 c 0.16569,0 0.27605,-0.13216 0.24494,-0.2949 -5.0387,-26.353 -36.99,-27.03 -40.978,-27.012 z"
         opacity="0.99"
         id="path7"
         style="fill:#000000;fill-opacity:1" /></g><path
       d="m 85.497,88.424 c 0.07587,0.68293 0.12109,1.3692 0.13544,2.0567 -0.0031,5.6358 -2.0781,11.074 -5.8301,15.279 -4.0217,4.5148 -9.6462,7.2466 -15.64,7.6416 -0.82649,0.0545 -1.4989,0.72134 -1.4989,1.5498 v 3.4395 c 0,0.82843 0.67209,1.5038 1.4993,1.4613 5.6197,-0.28854 11.051,-2.184 15.639,-5.4769 v 0.006 h 55.821 c 0.16569,0 0.31206,0.13385 0.33492,0.29794 0.0381,0.27377 0.0927,0.545 0.16335,0.81223 0.0424,0.16017 0.21729,0.28827 0.38298,0.28827 h 12.168 c 0.16569,0 0.3517,-0.12405 0.40795,-0.27988 0.26429,-0.73226 0.40304,-1.5047 0.40962,-2.2846 -0.0551,-3.0914 -2.1596,-5.7688 -5.1504,-6.5527 v -18.223 a 1.5,1.5 45 0 0 -1.5,-1.5 h -56.057 c -0.82843,0 -1.3773,0.66115 -1.2858,1.4844 z m 10.626,3.4434 h 1.1895 c 1.2614,0 2.2754,1.016 2.2754,2.2773 v 10.889 c 0,1.2614 -1.014,2.2774 -2.2754,2.2774 H 96.123 c -1.2614,0 -2.2754,-1.016 -2.2754,-2.2774 v -10.889 c 0,-1.2614 1.014,-2.2773 2.2754,-2.2773 z m 8.8105,0 h 1.1895 c 1.2614,0 2.2754,1.016 2.2754,2.2773 v 10.889 c 0,1.2614 -1.014,2.2774 -2.2754,2.2774 h -1.1895 c -1.2614,0 -2.2754,-1.016 -2.2754,-2.2774 v -10.889 c 0,-1.2614 1.014,-2.2773 2.2754,-2.2773 z m 8.8106,0 h 1.1894 c 1.2614,0 2.2754,1.016 2.2754,2.2773 v 10.889 c 0,1.2614 -1.014,2.2774 -2.2754,2.2774 h -1.1894 c -1.2614,0 -2.2754,-1.016 -2.2754,-2.2774 v -10.889 c 0,-1.2614 1.014,-2.2773 2.2754,-2.2773 z"
       opacity="0.99"
       stroke-width="5.1214"
       id="path8"
       style="fill:#000000;fill-opacity:1" /><g
       stroke-width="4"
       id="g12"
       style="fill:#000000;fill-opacity:1"
       clip-path="none"><path
         d="m 118.99,119.6 v 19.252 a 3.5005,3.5005 74.057 0 0 0.52824,1.8491 l 7.6002,12.217 a 0.89992,0.89992 29.057 0 0 0.76412,0.42455 h 2.1949 a 1.1879,1.1879 135 0 0 1.1879,-1.1879 v -32.554 a 1.5,1.5 45 0 0 -1.5,-1.5 h -9.2754 a 1.5,1.5 135 0 0 -1.5,1.5 z"
         opacity="0.99"
         id="path9"
         style="fill:#000000;fill-opacity:1" /><path
         d="m 138.29,137.4 c -2.1937,0 -3.959,1.7672 -3.959,3.9609 v 8.8086 c 0,2.1937 1.7653,3.9609 3.959,3.9609 h 17.82 c 2.1937,0 3.959,-1.7672 3.959,-3.9609 v -8.8086 c 0,-2.1937 -1.7653,-3.9609 -3.959,-3.9609 z m 16.186,2.6738 c 0.90491,0 1.6348,0.72791 1.6348,1.6328 v 8.1172 c 0,0.90491 -0.72985,1.6328 -1.6348,1.6328 -0.90495,0 -1.6328,-0.72791 -1.6328,-1.6328 v -8.1172 c 0,-0.90491 0.7279,-1.6328 1.6328,-1.6328 z"
         opacity="0.99"
         id="path10"
         style="fill:#000000;fill-opacity:1" /><path
         d="m 149.07,88.439 v 14.33 a 2.9969,2.9969 71.547 0 0 0.60049,1.7996 l 1.6905,2.2512 1.1809,1.5733 a 2.998,2.998 71.554 0 1 0.60032,1.7998 v 2.9668 a 1.5,1.5 45 0 0 1.5,1.5 h 1.4277 a 1.5,1.5 135 0 0 1.5,-1.5 v -4.4434 a 2.9982,2.9982 71.555 0 0 -0.60028,-1.7998 l -1.386,-1.8467 -1.2648,-1.6847 a 2.9975,2.9975 71.551 0 1 -0.6004,-1.7997 v -6.0957 a 0.5,0.5 135 0 1 0.5,-0.5 h 0.66992 a 1,1 135 0 0 1,-1 v -5.5508 a 1.5,1.5 45 0 0 -1.5,-1.5 h -3.8184 a 1.5,1.5 135 0 0 -1.5,1.5 z"
         opacity="0.99"
         id="path11"
         style="fill:#000000;fill-opacity:1" /><rect
         x="157.35001"
         y="86.939003"
         width="4.8011999"
         height="17.054001"
         rx="0"
         ry="1.4919"
         opacity="0.99"
         id="rect11"
         style="fill:#000000;fill-opacity:1" /><rect
         x="158.64"
         y="106.67"
         width="10.592"
         height="3.9598"
         rx="0"
         ry="1.4919"
         opacity="0.99"
         id="rect12"
         style="fill:#000000;fill-opacity:1" /></g><path
       d="m 62.664,71.57 a 18.91,18.91 0 0 0 -18.91,18.91 18.91,18.91 0 0 0 18.91,18.91 18.91,18.91 0 0 0 18.91,-18.91 18.91,18.91 0 0 0 -18.91,-18.91 z m 0,4.9004 a 14.01,14.01 0 0 1 14.01,14.01 14.01,14.01 0 0 1 -14.01,14.012 14.01,14.01 0 0 1 -14.01,-14.012 14.01,14.01 0 0 1 14.01,-14.01 z"
       opacity="0.99"
       stroke-width="3.293"
       id="path12"
       style="fill:#000000;fill-opacity:1" /><rect
       transform="rotate(-54.66)"
       x="-40.756001"
       y="93.060997"
       width="6.3892999"
       height="20.784"
       rx="1.4220001"
       ry="1.4220001"
       opacity="0.99"
       stroke-width="5.2261"
       id="rect13"
       style="fill:#000000;fill-opacity:1" /></g><g
     id="g27"
     style="display:inline"
     transform="translate(-2.2445204,-2.2184244)"><path
       id="path15"
       style="display:inline;fill:#000000;fill-opacity:0.995495;fill-rule:nonzero;stroke:none;stroke-width:0.999732;stroke-dasharray:none;stroke-opacity:1"
       inkscape:label="CircleOuter"
       d="m 107.0401,-39.631693 c -5.37046,-0.148297 -13.687496,-0.871159 -23.479262,-4.130808 -1.890248,-0.629257 -3.910473,-1.375129 -6.028851,-2.267968 -8.340272,-3.515197 -17.650597,-9.065139 -26.222989,-17.60421 -7.269053,-7.240797 -13.413897,-16.063191 -17.690173,-26.187657 -4.397765,-10.412124 -6.449023,-21.321354 -6.382693,-32.096114 0.13744,-15.55725 4.684978,-30.32816 12.788589,-42.8718 5.472635,-8.47113 11.679278,-14.55189 16.794933,-18.62082 6.552434,-5.21172 12.647998,-8.02921 15.661865,-9.39939 -2.928097,1.75316 -8.296328,5.36927 -14.319972,10.96311 -4.686255,4.35189 -10.323035,10.50019 -15.23648,18.848 -7.261933,12.33784 -11.116174,26.39822 -10.978774,41.0809 0.0663,10.16524 2.047855,20.40253 6.19127,30.184054 4.029626,9.512868 9.779897,17.825193 16.59771,24.67126 8.039312,8.072629 16.78278,13.352165 24.635533,16.686042 1.994058,0.846576 3.897567,1.553817 5.678876,2.146808 10.660432,3.548827 19.698798,3.95214 24.444108,3.956641 4.74574,-0.0046 13.78294,-0.408213 24.44218,-3.956641 1.78131,-0.592991 3.68481,-1.300233 5.67887,-2.146808 7.85276,-3.333878 16.59623,-8.613412 24.63554,-16.686042 6.81781,-6.846067 12.57002,-15.158392 16.59964,-24.67126 4.14342,-9.781524 6.12304,-20.018814 6.18934,-30.184054 0.1374,-14.68268 -3.71685,-28.74306 -10.97878,-41.0809 -4.91344,-8.34782 -10.55022,-14.49611 -15.23648,-18.848 -6.02364,-5.59384 -11.39187,-9.20995 -14.31997,-10.96311 3.01386,1.37018 9.10943,4.18767 15.66187,9.39939 5.11565,4.06892 11.3223,10.14969 16.79493,18.62082 8.1036,12.54364 12.65115,27.31454 12.78859,42.8718 0.0663,10.77476 -1.98492,21.68399 -6.3827,32.096114 -4.27627,10.124466 -10.42112,18.946859 -17.69017,26.187657 -8.57239,8.539071 -17.88272,14.089013 -26.22299,17.60421 -2.11838,0.892839 -4.1386,1.638711 -6.02885,2.267968 -9.79177,3.25965 -18.1088,3.982511 -23.47926,4.130808 -1.63493,0.07331 -3.27016,0.02905 -4.90545,0 z"
       sodipodi:nodetypes="csssscsscssccssscsssscsscsscsssscc"
       transform="matrix(1.0101168,0,0,-1.0316913,-25.265581,-38.274387)" /></g></svg>
